<svg version="1.2" xmlns="http://www.w3.org/2000/svg" viewBox="0 0 50 50" width="50" height="50"><style>.a{fill:#c20037}</style><path fill-rule="evenodd" class="a" d="m31.1 22.6c-1.1 0-2.1-0.5-2.9-1.2-0.8-0.8-1.2-1.8-1.2-2.9 0-1.1 0.4-2.1 1.2-2.9 0.8-0.8 1.8-1.2 2.9-1.2 1.1 0 2.1 0.4 2.9 1.2 1.5 1.6 1.5 4.2 0 5.8-0.8 0.7-1.8 1.2-2.9 1.2zm0-6.3c-0.6 0-1.2 0.2-1.6 0.6-0.4 0.4-0.6 1-0.6 1.6 0 0.6 0.2 1.1 0.6 1.5 0.4 0.4 1 0.7 1.6 0.7 0.6 0 1.1-0.3 1.5-0.7 0.9-0.8 0.9-2.2 0-3.1-0.4-0.4-0.9-0.6-1.5-0.6z"/><path class="a" d="m8.3 42.4q-0.3 0-0.6-0.3c-0.4-0.3-0.4-0.9 0-1.3l12.3-12.3c0.3-0.4 0.9-0.4 1.3 0 0.4 0.4 0.4 1 0 1.3l-12.3 12.3q-0.3 0.3-0.7 0.3z"/><path class="a" d="m8.9 34.5q-0.4 0-0.7-0.2c-0.4-0.4-0.4-1 0-1.4l2.3-2.3c0.4-0.4 1-0.4 1.4 0 0.3 0.4 0.3 1 0 1.4l-2.3 2.3q-0.3 0.2-0.7 0.2z"/><path class="a" d="m16.2 41.9c-0.2 0-0.5-0.1-0.7-0.3-0.3-0.4-0.3-1 0-1.3l2.4-2.4c0.3-0.3 0.9-0.3 1.3 0 0.4 0.4 0.4 1 0 1.4l-2.3 2.3c-0.2 0.2-0.5 0.3-0.7 0.3z"/><path fill-rule="evenodd" class="a" d="m33.9 29.1l0.2 8.6c0 1.5-0.5 2.9-1.5 3.9l-4.1 4c-0.4 0.4-0.9 0.6-1.5 0.6q-0.3 0-0.5 0c-0.8-0.2-1.4-0.8-1.6-1.5l-1.6-6.2-2.3-2.3c-0.4-0.4-0.4-1 0-1.4 0.3-0.3 0.9-0.3 1.3 0l1.8 1.9c12.7-12.4 19.5-22.9 20.3-31.1q0-0.1-0.1-0.1c0 0-0.1-0.1-0.1-0.1-8.2 0.8-18.7 7.6-31.1 20.3l1.9 1.8c0.3 0.4 0.3 1 0 1.3-0.4 0.4-1 0.4-1.4 0l-2.3-2.3-6.2-1.6c-0.7-0.3-1.3-0.8-1.5-1.6-0.2-0.7 0-1.5 0.6-2l4-4.1c1-1 2.4-1.5 3.9-1.5l8.6 0.2c8.9-7.7 16.6-11.7 23.3-12.3 0.6-0.1 1.2 0.1 1.6 0.6 0.5 0.4 0.7 1 0.6 1.6-0.6 6.7-4.6 14.3-12.3 23.3zm-15.3-11.3l-6.6-0.2c-0.9 0-1.8 0.3-2.4 1l-4.1 4c-0.1 0.1-0.1 0.2-0.1 0.3 0.1 0 0.1 0.1 0.2 0.1l5.9 1.6q3.7-3.8 7.1-6.8zm13.5 13.4q-3.2 3.4-6.9 7.1l1.6 5.9q0 0.1 0.2 0.2c0 0 0.1 0 0.2-0.1l4-4.1c0.7-0.6 1-1.5 1-2.4z"/></svg>