<svg xmlns="http://www.w3.org/2000/svg" xmlns:xlink="http://www.w3.org/1999/xlink" version="1.1" width="256" height="256" viewBox="0 0 256 256" xml:space="preserve">

<defs>
</defs>
<g style="stroke: none; stroke-width: 0; stroke-dasharray: none; stroke-linecap: butt; stroke-linejoin: miter; stroke-miterlimit: 10; fill: none; fill-rule: nonzero; opacity: 1;" transform="translate(1.4065934065934016 1.4065934065934016) scale(2.81 2.81)" >
	<path d="M 58.325 38.9 c -2.069 0 -4.014 -0.806 -5.476 -2.268 c -3.02 -3.02 -3.02 -7.934 0 -10.954 c 1.463 -1.463 3.407 -2.268 5.476 -2.268 s 4.015 0.806 5.477 2.268 c 3.02 3.02 3.02 7.934 0 10.954 l 0 0 C 62.34 38.094 60.395 38.9 58.325 38.9 z M 58.325 25.409 c -1.535 0 -2.977 0.598 -4.062 1.683 c -2.24 2.241 -2.24 5.886 0 8.126 c 1.085 1.085 2.527 1.683 4.062 1.683 s 2.978 -0.598 4.063 -1.683 l 0 0 c 2.24 -2.241 2.24 -5.886 0 -8.126 C 61.304 26.006 59.861 25.409 58.325 25.409 z" style="stroke: none; stroke-width: 1; stroke-dasharray: none; stroke-linecap: butt; stroke-linejoin: miter; stroke-miterlimit: 10; fill: rgb(0,0,0); fill-rule: nonzero; opacity: 1;" transform=" matrix(1 0 0 1 0 0) " stroke-linecap="round" />
	<path d="M 9.274 81.726 c -0.256 0 -0.512 -0.098 -0.707 -0.293 c -0.391 -0.391 -0.391 -1.023 0 -1.414 L 35.076 53.51 c 0.391 -0.391 1.023 -0.391 1.414 0 c 0.391 0.391 0.391 1.023 0 1.414 L 9.981 81.433 C 9.786 81.628 9.53 81.726 9.274 81.726 z" style="stroke: none; stroke-width: 1; stroke-dasharray: none; stroke-linecap: butt; stroke-linejoin: miter; stroke-miterlimit: 10; fill: rgb(0,0,0); fill-rule: nonzero; opacity: 1;" transform=" matrix(1 0 0 1 0 0) " stroke-linecap="round" />
	<path d="M 10.455 64.73 c -0.256 0 -0.512 -0.098 -0.707 -0.293 c -0.391 -0.391 -0.391 -1.023 0 -1.414 l 4.977 -4.976 c 0.391 -0.391 1.023 -0.391 1.414 0 s 0.391 1.023 0 1.414 l -4.977 4.976 C 10.967 64.633 10.711 64.73 10.455 64.73 z" style="stroke: none; stroke-width: 1; stroke-dasharray: none; stroke-linecap: butt; stroke-linejoin: miter; stroke-miterlimit: 10; fill: rgb(0,0,0); fill-rule: nonzero; opacity: 1;" transform=" matrix(1 0 0 1 0 0) " stroke-linecap="round" />
	<path d="M 26.269 80.544 c -0.256 0 -0.512 -0.098 -0.707 -0.293 c -0.391 -0.391 -0.391 -1.023 0 -1.414 l 4.977 -4.976 c 0.391 -0.391 1.023 -0.391 1.414 0 c 0.391 0.391 0.391 1.023 0 1.414 l -4.977 4.976 C 26.781 80.447 26.525 80.544 26.269 80.544 z" style="stroke: none; stroke-width: 1; stroke-dasharray: none; stroke-linecap: butt; stroke-linejoin: miter; stroke-miterlimit: 10; fill: rgb(0,0,0); fill-rule: nonzero; opacity: 1;" transform=" matrix(1 0 0 1 0 0) " stroke-linecap="round" />
	<path d="M 89.985 3.775 c 0.096 -1.026 -0.269 -2.033 -0.998 -2.763 c -0.73 -0.729 -1.744 -1.095 -2.761 -0.996 c -13.969 1.308 -30.654 10.255 -49.78 26.655 l -19.164 -0.486 c -2.801 -0.079 -5.532 1.022 -7.508 2.999 l -8.719 8.719 c -0.916 0.916 -1.264 2.21 -0.931 3.462 c 0.333 1.252 1.279 2.202 2.53 2.541 l 13.614 3.692 l 5.16 5.16 c 0.391 0.391 1.023 0.391 1.414 0 s 0.391 -1.023 0 -1.414 l -4.651 -4.651 C 45.378 18.733 68.327 3.7 86.412 2.007 c 0.438 -0.038 0.855 0.113 1.161 0.419 c 0.308 0.307 0.461 0.731 0.42 1.162 C 86.3 21.673 71.267 44.622 43.307 71.809 l -4.651 -4.651 c -0.391 -0.391 -1.023 -0.391 -1.414 0 c -0.391 0.391 -0.391 1.023 0 1.414 l 5.159 5.159 l 3.693 13.615 c 0.339 1.251 1.289 2.196 2.541 2.53 C 48.948 89.959 49.263 90 49.575 90 c 0.935 0 1.835 -0.367 2.522 -1.055 l 8.719 -8.719 c 1.977 -1.977 3.069 -4.714 2.999 -7.508 l -0.486 -19.165 C 79.729 34.428 88.676 17.743 89.985 3.775 z M 16.483 45.585 L 3.177 41.976 c -0.554 -0.15 -0.973 -0.571 -1.12 -1.125 c -0.148 -0.554 0.006 -1.127 0.412 -1.533 l 8.719 -8.719 c 1.591 -1.591 3.794 -2.458 6.043 -2.414 l 16.978 0.43 C 28.51 33.624 22.599 39.282 16.483 45.585 z M 61.816 72.769 c 0.058 2.248 -0.822 4.451 -2.413 6.043 l -8.719 8.719 c -0.406 0.404 -0.979 0.556 -1.534 0.412 c -0.555 -0.148 -0.976 -0.567 -1.126 -1.121 l -3.607 -13.305 c 6.302 -6.116 11.96 -12.027 16.969 -17.726 L 61.816 72.769 z" style="stroke: none; stroke-width: 1; stroke-dasharray: none; stroke-linecap: butt; stroke-linejoin: miter; stroke-miterlimit: 10; fill: rgb(0,0,0); fill-rule: nonzero; opacity: 1;" transform=" matrix(1 0 0 1 0 0) " stroke-linecap="round" />
</g>
</svg>