<svg version="1.2" xmlns="http://www.w3.org/2000/svg" viewBox="0 0 256 256" width="256" height="256"><style>.a{fill:#c20037}</style><path fill-rule="evenodd" class="a" d="m159.1 115.5c-5.6 0-10.8-2.2-14.7-6.1-4-4-6.2-9.2-6.2-14.8 0-5.6 2.2-10.8 6.2-14.8 3.9-3.9 9.1-6.1 14.7-6.1 5.6 0 10.8 2.2 14.8 6.1 8.1 8.2 8.1 21.4 0 29.6-4 3.9-9.2 6.1-14.8 6.1zm0-32.1c-3 0-5.8 1.2-7.9 3.3-2.1 2.1-3.2 4.9-3.2 7.9 0 3 1.1 5.8 3.2 7.9 2.1 2.1 4.9 3.3 7.9 3.3 3 0 5.8-1.2 7.9-3.3 4.4-4.4 4.4-11.4 0-15.8-2.1-2.1-4.9-3.3-7.9-3.3z"/><path class="a" d="m42.6 217.2c-1.2 0-2.4-0.5-3.4-1.4-1.9-1.9-1.9-5 0-6.9l63-63c1.9-1.9 4.9-1.9 6.8 0 1.9 1.9 1.9 5 0 6.9l-62.9 63c-1 0.9-2.2 1.4-3.5 1.4z"/><path class="a" d="m45.4 176.8c-1.2 0-2.4-0.5-3.4-1.4-1.9-1.9-1.9-5 0-6.9l11.8-11.8c1.9-1.9 5-1.9 6.9 0 1.9 1.9 1.9 5 0 6.9l-11.8 11.8c-1 0.9-2.2 1.4-3.5 1.4z"/><path class="a" d="m83 214.4c-1.2 0-2.5-0.5-3.4-1.5-1.9-1.9-1.9-4.9 0-6.8l11.8-11.8c1.9-1.9 5-1.9 6.9 0 1.9 1.9 1.9 4.9 0 6.8l-11.9 11.8c-0.9 1-2.2 1.5-3.4 1.5z"/><path fill-rule="evenodd" class="a" d="m173.5 148.8l1.1 44.4c0.2 7.3-2.6 14.5-7.8 19.7l-20.7 20.7c-2.1 2.1-4.9 3.2-7.7 3.2q-1.5 0-2.9-0.4c-3.9-1-6.8-3.9-7.8-7.7l-8.6-31.7-11.8-11.8c-1.9-1.9-1.9-5 0-6.9 1.9-1.9 5-1.9 6.9 0l9.3 9.4c64.8-63.4 99.7-116.8 103.6-158.8 0-0.4-0.1-0.6-0.3-0.8-0.1-0.1-0.4-0.3-0.7-0.2-42 3.9-95.4 38.7-158.8 103.6l9.3 9.3c1.9 1.9 1.9 5 0 6.9-1.9 1.9-5 1.9-6.9 0l-11.7-11.8-31.7-8.6c-3.9-1.1-6.8-4-7.8-7.8-1-3.9 0.1-7.8 2.9-10.6l20.7-20.7c5.1-5.2 12.4-8 19.6-7.9l44.4 1.1c45.7-39.2 85-60 119.1-63.2 3.1-0.3 6.2 0.8 8.5 3.1 2.3 2.2 3.4 5.3 3.1 8.5-3.2 34.1-24 73.3-63.3 119zm-78.1-57.9l-33.9-0.9c-4.7-0.1-9.3 1.7-12.6 5l-20.7 20.7c-0.4 0.5-0.4 1-0.3 1.3 0.1 0.3 0.3 0.7 0.9 0.9l30.2 8.2q18.8-19.4 36.4-35.2zm68.7 68.7q-15.9 17.5-35.2 36.4l8.2 30.1c0.1 0.6 0.5 0.9 0.9 1 0.3 0 0.8 0.1 1.2-0.4l20.7-20.7c3.3-3.3 5.1-7.9 5-12.5z"/></svg>