<svg xmlns="http://www.w3.org/2000/svg" xmlns:xlink="http://www.w3.org/1999/xlink" version="1.1" width="256" height="256" viewBox="0 0 256 256" xml:space="preserve">

<defs>
</defs>
<g style="stroke: none; stroke-width: 0; stroke-dasharray: none; stroke-linecap: butt; stroke-linejoin: miter; stroke-miterlimit: 10; fill: none; fill-rule: nonzero; opacity: 1;" transform="translate(18.12918287937744 18.12918287937741) scale(2.43 2.43)" >
	<path d="M 58.023 40.061 c -2.295 0 -4.453 -0.894 -6.075 -2.517 c -1.623 -1.622 -2.517 -3.781 -2.517 -6.075 s 0.894 -4.453 2.517 -6.076 c 1.622 -1.622 3.78 -2.516 6.075 -2.516 s 4.453 0.894 6.076 2.516 c 3.349 3.35 3.349 8.801 0 12.151 v 0 C 62.476 39.167 60.318 40.061 58.023 40.061 z M 58.023 26.876 c -1.227 0 -2.38 0.478 -3.247 1.345 c -0.867 0.868 -1.346 2.021 -1.346 3.247 s 0.478 2.38 1.346 3.247 c 0.867 0.868 2.02 1.346 3.247 1.346 s 2.38 -0.478 3.248 -1.345 c 1.79 -1.79 1.79 -4.704 0 -6.495 C 60.403 27.354 59.25 26.876 58.023 26.876 z" style="stroke: none; stroke-width: 1; stroke-dasharray: none; stroke-linecap: butt; stroke-linejoin: miter; stroke-miterlimit: 10; fill: rgb(75,145,221); fill-rule: nonzero; opacity: 1;" transform=" matrix(1 0 0 1 0 0) " stroke-linecap="round" />
	<path d="M 10.087 81.912 c -0.512 0 -1.024 -0.195 -1.414 -0.586 c -0.781 -0.781 -0.781 -2.047 0 -2.828 l 25.906 -25.906 c 0.78 -0.781 2.048 -0.781 2.828 0 c 0.781 0.781 0.781 2.047 0 2.828 L 11.501 81.327 C 11.111 81.717 10.599 81.912 10.087 81.912 z" style="stroke: none; stroke-width: 1; stroke-dasharray: none; stroke-linecap: butt; stroke-linejoin: miter; stroke-miterlimit: 10; fill: rgb(75,145,221); fill-rule: nonzero; opacity: 1;" transform=" matrix(1 0 0 1 0 0) " stroke-linecap="round" />
	<path d="M 11.242 65.304 c -0.512 0 -1.024 -0.195 -1.414 -0.586 c -0.781 -0.781 -0.781 -2.047 0 -2.828 l 4.864 -4.863 c 0.781 -0.781 2.048 -0.781 2.828 0 c 0.781 0.781 0.781 2.047 0 2.828 l -4.864 4.863 C 12.265 65.109 11.753 65.304 11.242 65.304 z" style="stroke: none; stroke-width: 1; stroke-dasharray: none; stroke-linecap: butt; stroke-linejoin: miter; stroke-miterlimit: 10; fill: rgb(75,145,221); fill-rule: nonzero; opacity: 1;" transform=" matrix(1 0 0 1 0 0) " stroke-linecap="round" />
	<path d="M 26.696 80.758 c -0.512 0 -1.024 -0.195 -1.414 -0.586 c -0.781 -0.781 -0.781 -2.047 0 -2.828 l 4.864 -4.863 c 0.781 -0.781 2.048 -0.781 2.828 0 c 0.781 0.781 0.781 2.047 0 2.828 l -4.864 4.863 C 27.719 80.563 27.208 80.758 26.696 80.758 z" style="stroke: none; stroke-width: 1; stroke-dasharray: none; stroke-linecap: butt; stroke-linejoin: miter; stroke-miterlimit: 10; fill: rgb(75,145,221); fill-rule: nonzero; opacity: 1;" transform=" matrix(1 0 0 1 0 0) " stroke-linecap="round" />
	<path d="M 89.98 4.807 c 0.122 -1.307 -0.341 -2.589 -1.269 -3.518 c -0.93 -0.929 -2.213 -1.396 -3.517 -1.268 c -14.022 1.313 -30.17 9.877 -48.979 26.032 L 17.939 25.59 c -2.991 -0.062 -5.956 1.102 -8.085 3.23 l -8.521 8.521 c -1.157 1.156 -1.596 2.79 -1.175 4.37 c 0.42 1.58 1.614 2.779 3.192 3.207 l 13.043 3.537 l 4.849 4.849 c 0.78 0.781 2.047 0.781 2.828 0 c 0.781 -0.781 0.781 -2.047 0 -2.828 l -3.831 -3.832 C 46.324 19.963 68.295 5.62 85.566 4.003 c 0.152 -0.021 0.256 0.055 0.316 0.115 s 0.13 0.165 0.115 0.317 c -1.616 17.27 -15.959 39.241 -42.642 65.327 l -3.831 -3.831 c -0.781 -0.781 -2.048 -0.781 -2.828 0 c -0.781 0.781 -0.781 2.047 0 2.828 l 4.849 4.848 l 3.537 13.044 c 0.429 1.578 1.628 2.771 3.208 3.191 C 48.685 89.948 49.082 90 49.475 90 c 1.181 -0.001 2.317 -0.465 3.184 -1.332 l 8.521 -8.521 c 2.13 -2.13 3.306 -5.077 3.229 -8.086 l -0.463 -18.275 C 80.103 34.978 88.667 18.829 89.98 4.807 z M 16.82 44.427 L 4.397 41.058 c -0.244 -0.066 -0.338 -0.241 -0.374 -0.376 c -0.036 -0.135 -0.041 -0.333 0.138 -0.513 l 8.521 -8.521 c 1.357 -1.356 3.244 -2.1 5.156 -2.059 L 31.8 29.943 C 26.979 34.289 21.988 39.116 16.82 44.427 z M 60.412 72.163 c 0.049 1.919 -0.702 3.798 -2.059 5.156 l -8.521 8.521 c -0.181 0.18 -0.379 0.174 -0.513 0.138 c -0.135 -0.036 -0.311 -0.13 -0.376 -0.374 L 45.573 73.18 c 5.311 -5.169 10.138 -10.16 14.484 -14.98 L 60.412 72.163 z" style="stroke: none; stroke-width: 1; stroke-dasharray: none; stroke-linecap: butt; stroke-linejoin: miter; stroke-miterlimit: 10; fill: rgb(75,145,221); fill-rule: nonzero; opacity: 1;" transform=" matrix(1 0 0 1 0 0) " stroke-linecap="round" />
</g>
</svg>